<svg xmlns="http://www.w3.org/2000/svg" xmlns:xlink="http://www.w3.org/1999/xlink" width="500" zoomAndPan="magnify" viewBox="0 0 375 374.999991" height="500" preserveAspectRatio="xMidYMid meet" version="1.0"><defs><g/><clipPath id="844cd164dc"><path d="M 69.726562 0 L 311.976562 0 L 311.976562 291 L 69.726562 291 Z M 69.726562 0 " clip-rule="nonzero"/></clipPath><clipPath id="71153211cc"><rect x="0" width="251" y="0" height="61"/></clipPath></defs><g clip-path="url(#844cd164dc)"><path fill="#ff914d" d="M 69.726562 188.03125 C 69.726562 160.4375 77.183594 138.066406 89.113281 120.914062 C 89.113281 154.84375 97.316406 166.777344 115.214844 166.777344 C 127.148438 166.777344 139.453125 157.828125 139.453125 142.539062 C 139.453125 128.746094 130.128906 103.761719 130.128906 76.914062 C 130.128906 50.066406 139.078125 21.355469 175.621094 0.101562 C 167.417969 21.730469 164.0625 40 164.0625 54.914062 C 164.0625 94.441406 187.925781 112.335938 209.179688 112.335938 C 226.332031 112.335938 244.230469 101.152344 244.230469 68.710938 C 255.789062 81.390625 261.007812 95.929688 261.007812 110.472656 C 261.007812 133.589844 248.332031 154.097656 248.332031 172.742188 C 248.332031 188.03125 260.636719 196.980469 272.566406 196.980469 C 293.820312 196.980469 300.160156 177.964844 300.160156 146.640625 C 306.5 157.457031 312.09375 178.710938 312.09375 196.980469 C 312.09375 251.417969 260.636719 290.945312 203.214844 290.945312 C 251.6875 272.671875 260.636719 248.4375 260.636719 221.214844 C 248.703125 242.46875 236.398438 245.453125 230.433594 245.453125 C 193.890625 245.453125 233.414062 175.726562 169.65625 127.253906 C 180.09375 149.625 184.195312 169.015625 184.195312 184.675781 C 184.195312 218.234375 165.925781 236.503906 148.402344 236.503906 C 133.484375 236.503906 118.570312 224.574219 112.605469 199.21875 C 112.605469 234.640625 123.046875 268.199219 169.65625 290.945312 C 96.945312 279.011719 69.726562 233.519531 69.726562 188.03125 Z M 69.726562 188.03125 " fill-opacity="1" fill-rule="nonzero"/></g><g transform="matrix(1, 0, 0, 1, 62, 314)"><g clip-path="url(#71153211cc)"><g fill="#000000" fill-opacity="1"><g transform="translate(0.903614, 50.175143)"><g><path d="M 11.15625 0 L 4.203125 0 L 4.203125 -33.34375 L 23.3125 -33.34375 L 23.3125 -27.546875 L 11.15625 -27.546875 L 11.15625 -18.953125 L 22.46875 -18.953125 L 22.46875 -13.1875 L 11.15625 -13.1875 Z M 11.15625 0 "/></g></g></g><g fill="#000000" fill-opacity="1"><g transform="translate(26.539062, 50.175143)"><g><path d="M 3.359375 -32.078125 C 3.359375 -34.347656 4.617188 -35.484375 7.140625 -35.484375 C 9.660156 -35.484375 10.921875 -34.347656 10.921875 -32.078125 C 10.921875 -31.003906 10.601562 -30.164062 9.96875 -29.5625 C 9.34375 -28.96875 8.398438 -28.671875 7.140625 -28.671875 C 4.617188 -28.671875 3.359375 -29.804688 3.359375 -32.078125 Z M 10.609375 0 L 3.65625 0 L 3.65625 -25.5 L 10.609375 -25.5 Z M 10.609375 0 "/></g></g></g><g fill="#000000" fill-opacity="1"><g transform="translate(40.793654, 50.175143)"><g><path d="M 17.875 -25.96875 C 18.820312 -25.96875 19.609375 -25.898438 20.234375 -25.765625 L 19.703125 -19.25 C 19.140625 -19.394531 18.457031 -19.46875 17.65625 -19.46875 C 15.4375 -19.46875 13.707031 -18.894531 12.46875 -17.75 C 11.226562 -16.613281 10.609375 -15.019531 10.609375 -12.96875 L 10.609375 0 L 3.65625 0 L 3.65625 -25.5 L 8.921875 -25.5 L 9.9375 -21.203125 L 10.28125 -21.203125 C 11.070312 -22.640625 12.140625 -23.789062 13.484375 -24.65625 C 14.828125 -25.53125 16.289062 -25.96875 17.875 -25.96875 Z M 17.875 -25.96875 "/></g></g></g><g fill="#000000" fill-opacity="1"><g transform="translate(62.004478, 50.175143)"><g><path d="M 14.203125 -21.03125 C 12.734375 -21.03125 11.578125 -20.5625 10.734375 -19.625 C 9.898438 -18.6875 9.421875 -17.359375 9.296875 -15.640625 L 19.0625 -15.640625 C 19.03125 -17.359375 18.582031 -18.6875 17.71875 -19.625 C 16.851562 -20.5625 15.679688 -21.03125 14.203125 -21.03125 Z M 15.1875 0.453125 C 11.082031 0.453125 7.875 -0.675781 5.5625 -2.9375 C 3.25 -5.207031 2.09375 -8.414062 2.09375 -12.5625 C 2.09375 -16.832031 3.160156 -20.132812 5.296875 -22.46875 C 7.429688 -24.800781 10.382812 -25.96875 14.15625 -25.96875 C 17.757812 -25.96875 20.566406 -24.941406 22.578125 -22.890625 C 24.585938 -20.835938 25.59375 -18.003906 25.59375 -14.390625 L 25.59375 -11.015625 L 9.140625 -11.015625 C 9.222656 -9.035156 9.8125 -7.488281 10.90625 -6.375 C 12 -5.269531 13.53125 -4.71875 15.5 -4.71875 C 17.039062 -4.71875 18.492188 -4.875 19.859375 -5.1875 C 21.234375 -5.507812 22.664062 -6.023438 24.15625 -6.734375 L 24.15625 -1.34375 C 22.9375 -0.738281 21.632812 -0.289062 20.25 0 C 18.863281 0.300781 17.175781 0.453125 15.1875 0.453125 Z M 15.1875 0.453125 "/></g></g></g><g fill="#000000" fill-opacity="1"><g transform="translate(89.601357, 50.175143)"><g/></g></g><g fill="#000000" fill-opacity="1"><g transform="translate(101.734862, 50.175143)"><g><path d="M 36.671875 0 L 28.625 0 L 24.109375 -17.515625 C 23.941406 -18.140625 23.65625 -19.425781 23.25 -21.375 C 22.84375 -23.332031 22.609375 -24.644531 22.546875 -25.3125 C 22.460938 -24.488281 22.238281 -23.164062 21.875 -21.34375 C 21.507812 -19.53125 21.226562 -18.238281 21.03125 -17.46875 L 16.53125 0 L 8.5 0 L 0 -33.34375 L 6.953125 -33.34375 L 11.21875 -15.140625 C 11.96875 -11.785156 12.507812 -8.875 12.84375 -6.40625 C 12.925781 -7.269531 13.128906 -8.609375 13.453125 -10.421875 C 13.785156 -12.242188 14.097656 -13.65625 14.390625 -14.65625 L 19.25 -33.34375 L 25.921875 -33.34375 L 30.78125 -14.65625 C 31 -13.820312 31.265625 -12.546875 31.578125 -10.828125 C 31.898438 -9.109375 32.144531 -7.632812 32.3125 -6.40625 C 32.46875 -7.59375 32.710938 -9.070312 33.046875 -10.84375 C 33.378906 -12.613281 33.679688 -14.046875 33.953125 -15.140625 L 38.203125 -33.34375 L 45.15625 -33.34375 Z M 36.671875 0 "/></g></g></g><g fill="#000000" fill-opacity="1"><g transform="translate(146.893392, 50.175143)"><g><path d="M 19.84375 0 L 18.5 -3.46875 L 18.3125 -3.46875 C 17.144531 -1.988281 15.941406 -0.960938 14.703125 -0.390625 C 13.460938 0.171875 11.84375 0.453125 9.84375 0.453125 C 7.40625 0.453125 5.484375 -0.242188 4.078125 -1.640625 C 2.671875 -3.035156 1.96875 -5.023438 1.96875 -7.609375 C 1.96875 -10.316406 2.910156 -12.3125 4.796875 -13.59375 C 6.691406 -14.882812 9.546875 -15.597656 13.359375 -15.734375 L 17.78125 -15.875 L 17.78125 -16.984375 C 17.78125 -19.566406 16.457031 -20.859375 13.8125 -20.859375 C 11.78125 -20.859375 9.390625 -20.242188 6.640625 -19.015625 L 4.328125 -23.71875 C 7.265625 -25.25 10.519531 -26.015625 14.09375 -26.015625 C 17.507812 -26.015625 20.128906 -25.269531 21.953125 -23.78125 C 23.785156 -22.289062 24.703125 -20.023438 24.703125 -16.984375 L 24.703125 0 Z M 17.78125 -11.8125 L 15.09375 -11.71875 C 13.070312 -11.65625 11.566406 -11.289062 10.578125 -10.625 C 9.585938 -9.957031 9.09375 -8.941406 9.09375 -7.578125 C 9.09375 -5.609375 10.21875 -4.625 12.46875 -4.625 C 14.082031 -4.625 15.367188 -5.085938 16.328125 -6.015625 C 17.296875 -6.941406 17.78125 -8.175781 17.78125 -9.71875 Z M 17.78125 -11.8125 "/></g></g></g><g fill="#000000" fill-opacity="1"><g transform="translate(175.106075, 50.175143)"><g><path d="M 14.390625 -5.078125 C 15.609375 -5.078125 17.066406 -5.347656 18.765625 -5.890625 L 18.765625 -0.703125 C 17.035156 0.0664062 14.90625 0.453125 12.375 0.453125 C 9.59375 0.453125 7.566406 -0.25 6.296875 -1.65625 C 5.035156 -3.0625 4.40625 -5.171875 4.40625 -7.984375 L 4.40625 -20.265625 L 1.078125 -20.265625 L 1.078125 -23.21875 L 4.90625 -25.546875 L 6.90625 -30.921875 L 11.359375 -30.921875 L 11.359375 -25.5 L 18.5 -25.5 L 18.5 -20.265625 L 11.359375 -20.265625 L 11.359375 -7.984375 C 11.359375 -6.992188 11.632812 -6.257812 12.1875 -5.78125 C 12.738281 -5.3125 13.472656 -5.078125 14.390625 -5.078125 Z M 14.390625 -5.078125 "/></g></g></g><g fill="#000000" fill-opacity="1"><g transform="translate(195.381814, 50.175143)"><g><path d="M 14 0.453125 C 6.0625 0.453125 2.09375 -3.898438 2.09375 -12.609375 C 2.09375 -16.941406 3.171875 -20.25 5.328125 -22.53125 C 7.492188 -24.820312 10.59375 -25.96875 14.625 -25.96875 C 17.570312 -25.96875 20.210938 -25.390625 22.546875 -24.234375 L 20.5 -18.859375 C 19.40625 -19.296875 18.382812 -19.65625 17.4375 -19.9375 C 16.5 -20.21875 15.5625 -20.359375 14.625 -20.359375 C 11 -20.359375 9.1875 -17.789062 9.1875 -12.65625 C 9.1875 -7.664062 11 -5.171875 14.625 -5.171875 C 15.957031 -5.171875 17.191406 -5.347656 18.328125 -5.703125 C 19.472656 -6.066406 20.613281 -6.628906 21.75 -7.390625 L 21.75 -1.4375 C 20.625 -0.71875 19.488281 -0.222656 18.34375 0.046875 C 17.195312 0.316406 15.75 0.453125 14 0.453125 Z M 14 0.453125 "/></g></g></g><g fill="#000000" fill-opacity="1"><g transform="translate(219.397936, 50.175143)"><g><path d="M 27.1875 0 L 20.234375 0 L 20.234375 -14.890625 C 20.234375 -18.566406 18.863281 -20.40625 16.125 -20.40625 C 14.175781 -20.40625 12.769531 -19.742188 11.90625 -18.421875 C 11.039062 -17.097656 10.609375 -14.957031 10.609375 -12 L 10.609375 0 L 3.65625 0 L 3.65625 -35.484375 L 10.609375 -35.484375 L 10.609375 -28.25 C 10.609375 -27.6875 10.550781 -26.363281 10.4375 -24.28125 L 10.28125 -22.234375 L 10.65625 -22.234375 C 12.195312 -24.722656 14.65625 -25.96875 18.03125 -25.96875 C 21.03125 -25.96875 23.304688 -25.160156 24.859375 -23.546875 C 26.410156 -21.941406 27.1875 -19.632812 27.1875 -16.625 Z M 27.1875 0 "/></g></g></g></g></g></svg>